<mxfile host="app.diagrams.net" agent="Mozilla/5.0 (X11; Ubuntu; Linux x86_64; rv:136.0) Gecko/20100101 Firefox/136.0" version="26.2.14">
  <diagram name="Page-1" id="NSXCz7aa2gl7wqfZTNAa">
    <mxGraphModel dx="2258" dy="619" grid="1" gridSize="10" guides="1" tooltips="1" connect="1" arrows="1" fold="1" page="1" pageScale="1" pageWidth="850" pageHeight="1100" math="0" shadow="0">
      <root>
        <mxCell id="0" />
        <mxCell id="1" parent="0" />
        <mxCell id="NBeBdDpoBQNzh6IyfVi--27" value="&#xa;&#xa;SecurityConfig.java" style="swimlane;startSize=0;" vertex="1" parent="1">
          <mxGeometry x="-460" y="315" width="490" height="490" as="geometry" />
        </mxCell>
        <mxCell id="NBeBdDpoBQNzh6IyfVi--29" value="PsswordEncoder" style="rounded=0;whiteSpace=wrap;html=1;" vertex="1" parent="NBeBdDpoBQNzh6IyfVi--27">
          <mxGeometry x="30" y="55" width="190" height="60" as="geometry" />
        </mxCell>
        <mxCell id="NBeBdDpoBQNzh6IyfVi--31" value="ReactiveAuthenticationManager" style="rounded=0;" vertex="1" parent="NBeBdDpoBQNzh6IyfVi--27">
          <mxGeometry x="260" y="215" width="190" height="60" as="geometry" />
        </mxCell>
        <mxCell id="NBeBdDpoBQNzh6IyfVi--68" style="edgeStyle=orthogonalEdgeStyle;rounded=0;orthogonalLoop=1;jettySize=auto;html=1;" edge="1" parent="NBeBdDpoBQNzh6IyfVi--27" source="NBeBdDpoBQNzh6IyfVi--32" target="NBeBdDpoBQNzh6IyfVi--37">
          <mxGeometry relative="1" as="geometry" />
        </mxCell>
        <mxCell id="NBeBdDpoBQNzh6IyfVi--32" value="SecurityWebFilterChain" style="rounded=0;" vertex="1" parent="NBeBdDpoBQNzh6IyfVi--27">
          <mxGeometry x="30" y="160" width="190" height="60" as="geometry" />
        </mxCell>
        <mxCell id="NBeBdDpoBQNzh6IyfVi--36" value="" style="edgeStyle=orthogonalEdgeStyle;rounded=0;orthogonalLoop=1;jettySize=auto;html=1;entryX=0;entryY=0.5;entryDx=0;entryDy=0;exitX=0.5;exitY=1;exitDx=0;exitDy=0;" edge="1" parent="NBeBdDpoBQNzh6IyfVi--27" source="NBeBdDpoBQNzh6IyfVi--37" target="NBeBdDpoBQNzh6IyfVi--76">
          <mxGeometry relative="1" as="geometry">
            <mxPoint x="295.0000000000002" y="430" as="targetPoint" />
          </mxGeometry>
        </mxCell>
        <mxCell id="NBeBdDpoBQNzh6IyfVi--37" value="PathMatchers" style="swimlane;fontStyle=0;childLayout=stackLayout;horizontal=1;startSize=30;horizontalStack=0;resizeParent=1;resizeParentMax=0;resizeLast=0;collapsible=1;marginBottom=0;whiteSpace=wrap;html=1;" vertex="1" parent="NBeBdDpoBQNzh6IyfVi--27">
          <mxGeometry x="55" y="260" width="140" height="120" as="geometry" />
        </mxCell>
        <mxCell id="NBeBdDpoBQNzh6IyfVi--38" value="/api/v1/user" style="text;strokeColor=none;fillColor=none;align=left;verticalAlign=middle;spacingLeft=4;spacingRight=4;overflow=hidden;points=[[0,0.5],[1,0.5]];portConstraint=eastwest;rotatable=0;whiteSpace=wrap;html=1;" vertex="1" parent="NBeBdDpoBQNzh6IyfVi--37">
          <mxGeometry y="30" width="140" height="30" as="geometry" />
        </mxCell>
        <mxCell id="NBeBdDpoBQNzh6IyfVi--39" value="/api/v1/products" style="text;strokeColor=none;fillColor=none;align=left;verticalAlign=middle;spacingLeft=4;spacingRight=4;overflow=hidden;points=[[0,0.5],[1,0.5]];portConstraint=eastwest;rotatable=0;whiteSpace=wrap;html=1;" vertex="1" parent="NBeBdDpoBQNzh6IyfVi--37">
          <mxGeometry y="60" width="140" height="30" as="geometry" />
        </mxCell>
        <mxCell id="NBeBdDpoBQNzh6IyfVi--40" value="/api/v1/stock" style="text;strokeColor=none;fillColor=none;align=left;verticalAlign=middle;spacingLeft=4;spacingRight=4;overflow=hidden;points=[[0,0.5],[1,0.5]];portConstraint=eastwest;rotatable=0;whiteSpace=wrap;html=1;" vertex="1" parent="NBeBdDpoBQNzh6IyfVi--37">
          <mxGeometry y="90" width="140" height="30" as="geometry" />
        </mxCell>
        <mxCell id="NBeBdDpoBQNzh6IyfVi--41" value="" style="edgeStyle=orthogonalEdgeStyle;rounded=0;orthogonalLoop=1;jettySize=auto;html=1;" edge="1" parent="NBeBdDpoBQNzh6IyfVi--27" source="NBeBdDpoBQNzh6IyfVi--76" target="NBeBdDpoBQNzh6IyfVi--77">
          <mxGeometry relative="1" as="geometry">
            <mxPoint x="354.9999999999998" y="410" as="sourcePoint" />
            <mxPoint x="355.0000000000002" y="360" as="targetPoint" />
          </mxGeometry>
        </mxCell>
        <mxCell id="NBeBdDpoBQNzh6IyfVi--43" style="edgeStyle=orthogonalEdgeStyle;rounded=0;orthogonalLoop=1;jettySize=auto;html=1;exitX=0.5;exitY=0;exitDx=0;exitDy=0;" edge="1" parent="NBeBdDpoBQNzh6IyfVi--27" source="NBeBdDpoBQNzh6IyfVi--77" target="NBeBdDpoBQNzh6IyfVi--31">
          <mxGeometry relative="1" as="geometry">
            <mxPoint x="355.0000000000002" y="320" as="sourcePoint" />
          </mxGeometry>
        </mxCell>
        <mxCell id="NBeBdDpoBQNzh6IyfVi--76" value="httpBasic" style="shape=process;whiteSpace=wrap;html=1;backgroundOutline=1;" vertex="1" parent="NBeBdDpoBQNzh6IyfVi--27">
          <mxGeometry x="295" y="415" width="120" height="30" as="geometry" />
        </mxCell>
        <mxCell id="NBeBdDpoBQNzh6IyfVi--77" value="authenticationManager" style="shape=process;whiteSpace=wrap;html=1;backgroundOutline=1;" vertex="1" parent="NBeBdDpoBQNzh6IyfVi--27">
          <mxGeometry x="265" y="325" width="180" height="30" as="geometry" />
        </mxCell>
        <mxCell id="NBeBdDpoBQNzh6IyfVi--53" style="edgeStyle=orthogonalEdgeStyle;rounded=0;orthogonalLoop=1;jettySize=auto;html=1;" edge="1" parent="1" source="NBeBdDpoBQNzh6IyfVi--47" target="NBeBdDpoBQNzh6IyfVi--48">
          <mxGeometry relative="1" as="geometry" />
        </mxCell>
        <mxCell id="NBeBdDpoBQNzh6IyfVi--47" value="UserDocument.java" style="rounded=0;" vertex="1" parent="1">
          <mxGeometry x="350" y="550" width="190" height="60" as="geometry" />
        </mxCell>
        <mxCell id="NBeBdDpoBQNzh6IyfVi--71" style="edgeStyle=orthogonalEdgeStyle;rounded=0;orthogonalLoop=1;jettySize=auto;html=1;entryX=1;entryY=0.25;entryDx=0;entryDy=0;exitX=0;exitY=0.25;exitDx=0;exitDy=0;" edge="1" parent="1" source="NBeBdDpoBQNzh6IyfVi--48" target="NBeBdDpoBQNzh6IyfVi--34">
          <mxGeometry relative="1" as="geometry" />
        </mxCell>
        <mxCell id="NBeBdDpoBQNzh6IyfVi--48" value="UserRepository.java" style="rounded=0;" vertex="1" parent="1">
          <mxGeometry x="350" y="435" width="190" height="60" as="geometry" />
        </mxCell>
        <mxCell id="NBeBdDpoBQNzh6IyfVi--50" style="edgeStyle=orthogonalEdgeStyle;rounded=0;orthogonalLoop=1;jettySize=auto;html=1;" edge="1" parent="1" source="NBeBdDpoBQNzh6IyfVi--46" target="NBeBdDpoBQNzh6IyfVi--34">
          <mxGeometry relative="1" as="geometry" />
        </mxCell>
        <mxCell id="NBeBdDpoBQNzh6IyfVi--65" style="edgeStyle=orthogonalEdgeStyle;rounded=0;orthogonalLoop=1;jettySize=auto;html=1;" edge="1" parent="1" source="NBeBdDpoBQNzh6IyfVi--34" target="NBeBdDpoBQNzh6IyfVi--64">
          <mxGeometry relative="1" as="geometry" />
        </mxCell>
        <mxCell id="NBeBdDpoBQNzh6IyfVi--70" style="edgeStyle=orthogonalEdgeStyle;rounded=0;orthogonalLoop=1;jettySize=auto;html=1;entryX=0;entryY=0.75;entryDx=0;entryDy=0;exitX=1;exitY=0.75;exitDx=0;exitDy=0;" edge="1" parent="1" source="NBeBdDpoBQNzh6IyfVi--34" target="NBeBdDpoBQNzh6IyfVi--48">
          <mxGeometry relative="1" as="geometry" />
        </mxCell>
        <mxCell id="NBeBdDpoBQNzh6IyfVi--34" value="CustomUserDetailsService.java" style="rounded=0;" vertex="1" parent="1">
          <mxGeometry x="90" y="435" width="190" height="60" as="geometry" />
        </mxCell>
        <mxCell id="NBeBdDpoBQNzh6IyfVi--28" style="edgeStyle=orthogonalEdgeStyle;rounded=0;orthogonalLoop=1;jettySize=auto;html=1;entryX=0;entryY=0.25;entryDx=0;entryDy=0;exitX=1;exitY=0.25;exitDx=0;exitDy=0;" edge="1" parent="1" source="NBeBdDpoBQNzh6IyfVi--29" target="NBeBdDpoBQNzh6IyfVi--34">
          <mxGeometry relative="1" as="geometry" />
        </mxCell>
        <mxCell id="NBeBdDpoBQNzh6IyfVi--59" style="edgeStyle=orthogonalEdgeStyle;rounded=0;orthogonalLoop=1;jettySize=auto;html=1;" edge="1" parent="1" source="NBeBdDpoBQNzh6IyfVi--57" target="NBeBdDpoBQNzh6IyfVi--32">
          <mxGeometry relative="1" as="geometry" />
        </mxCell>
        <mxCell id="NBeBdDpoBQNzh6IyfVi--57" value="Start" style="ellipse;whiteSpace=wrap;html=1;rounded=0;" vertex="1" parent="1">
          <mxGeometry x="-550" y="482.5" width="45" height="45" as="geometry" />
        </mxCell>
        <mxCell id="NBeBdDpoBQNzh6IyfVi--64" value="End" style="ellipse;whiteSpace=wrap;html=1;rounded=0;" vertex="1" parent="1">
          <mxGeometry x="162.5" y="340" width="45" height="45" as="geometry" />
        </mxCell>
        <mxCell id="NBeBdDpoBQNzh6IyfVi--67" value="&#xa;&#xa;SECURITY CORE" style="swimlane;startSize=0;" vertex="1" parent="1">
          <mxGeometry x="290" y="660" width="250" height="120" as="geometry" />
        </mxCell>
        <mxCell id="NBeBdDpoBQNzh6IyfVi--46" value="UserDetails.java" style="rounded=0;" vertex="1" parent="NBeBdDpoBQNzh6IyfVi--67">
          <mxGeometry x="30" y="35" width="190" height="60" as="geometry" />
        </mxCell>
        <mxCell id="NBeBdDpoBQNzh6IyfVi--69" style="edgeStyle=orthogonalEdgeStyle;rounded=0;orthogonalLoop=1;jettySize=auto;html=1;entryX=0;entryY=0.75;entryDx=0;entryDy=0;exitX=0.5;exitY=0;exitDx=0;exitDy=0;" edge="1" parent="1" source="NBeBdDpoBQNzh6IyfVi--31" target="NBeBdDpoBQNzh6IyfVi--34">
          <mxGeometry relative="1" as="geometry" />
        </mxCell>
        <mxCell id="NBeBdDpoBQNzh6IyfVi--72" value="&lt;div&gt;is Login&lt;/div&gt;&lt;div&gt;Valid ?&lt;/div&gt;" style="rhombus;whiteSpace=wrap;html=1;" vertex="1" parent="1">
          <mxGeometry x="270" y="350" width="80" height="80" as="geometry" />
        </mxCell>
        <mxCell id="NBeBdDpoBQNzh6IyfVi--74" style="edgeStyle=orthogonalEdgeStyle;rounded=0;orthogonalLoop=1;jettySize=auto;html=1;" edge="1" parent="1" source="NBeBdDpoBQNzh6IyfVi--73" target="NBeBdDpoBQNzh6IyfVi--47">
          <mxGeometry relative="1" as="geometry" />
        </mxCell>
        <mxCell id="NBeBdDpoBQNzh6IyfVi--73" value="DB" style="shape=cylinder3;whiteSpace=wrap;html=1;boundedLbl=1;backgroundOutline=1;size=9.461538461538339;" vertex="1" parent="1">
          <mxGeometry x="580" y="555" width="40" height="50" as="geometry" />
        </mxCell>
        <mxCell id="NBeBdDpoBQNzh6IyfVi--78" value="&lt;h1 style=&quot;margin-top: 0px;&quot;&gt;Basic Auth&lt;/h1&gt;&lt;p&gt;Simple Explanation about the Spring Security for Spring Boot Framework&lt;/p&gt;" style="text;html=1;whiteSpace=wrap;overflow=hidden;rounded=0;" vertex="1" parent="1">
          <mxGeometry x="-460" y="235" width="490" height="80" as="geometry" />
        </mxCell>
      </root>
    </mxGraphModel>
  </diagram>
</mxfile>
